# xmcd CD database file generated by MAGIX_Freedb v0.9beta0
# 
# Track frame offsets:
#      150
#      16757
#      30817
#      40849
#      53067
#      63861
#      76264
#      87987
#      98361
#      109937
#      123375
#      137439
#      150498
#      162884
#      174398
#      182499
#      192982
#      206661
#      225406
#      236817
#      248711
#      262088
#      274047
#      286988
# 
# Disc length: 3999 seconds
# 
# Revision: 0 
# Processed by: cddbd v1.4PL0 Copyright (c) Steve Scherf et al.
# Submitted via: MAGIX_Freedb v0.9beta0
# 
DISCID=2c0f9d18
DTITLE=Johnny Cash - Johnny Cash Starportrait
DYEAR=1900
DGENRE=
TTITLE0=A boy named Sue
TTITLE1=Orange Blossom Special
TTITLE2=Wildwood Flower
TTITLE3=Understand your man
TTITLE4=Daddy sang bass
TTITLE5=Wreck of the old 97
TTITLE6=Ring of fire
TTITLE7=Bonanza
TTITLE8=In them old cottonfields back home
TTITLE9=If I were a carpenter
TTITLE10=The long black Veil
TTITLE11=Forty shades of green
TTITLE12=Folsom prison Blues
TTITLE13=Long-legged guitar pickin´man
TTITLE14=Five feet high and rising
TTITLE15=Big river
TTITLE16=Don´t take your guns to town
TTITLE17=Sunday morning coming down
TTITLE18=I walk the line
TTITLE19=Wabash Cannon Ball
TTITLE20=Tennessee flat-top box
TTITLE21=What is the truth
TTITLE22=Man in black
TTITLE23=Singinín Vietnam talkin´blues
EXTD=
EXTT0=
EXTT1=
EXTT2=
EXTT3=
EXTT4=
EXTT5=
EXTT6=
EXTT7=
EXTT8=
EXTT9=
EXTT10=
EXTT11=
EXTT12=
EXTT13=
EXTT14=
EXTT15=
EXTT16=
EXTT17=
EXTT18=
EXTT19=
EXTT20=
EXTT21=
EXTT22=
EXTT23=
PLAYORDER=
